<?xml version="1.0" standalone="no"?>
<!DOCTYPE svg PUBLIC "-//W3C//DTD SVG 20010904//EN"
 "http://www.w3.org/TR/2001/REC-SVG-20010904/DTD/svg10.dtd">
<svg version="1.0" xmlns="http://www.w3.org/2000/svg"
 width="5120.000000pt" height="5120.000000pt" viewBox="0 0 5120.000000 5120.000000"
 preserveAspectRatio="xMidYMid meet">
<metadata>
Created by potrace 1.14, written by Peter Selinger 2001-2017
</metadata>
<g transform="translate(0.000000,5120.000000) scale(0.100000,-0.100000)"
fill="#000000" stroke="none">
<path d="M22335 44784 c-96 -19 -218 -81 -285 -146 -30 -29 -330 -413 -666
-853 -336 -440 -986 -1290 -1445 -1890 -514 -672 -846 -1115 -866 -1155 -68
-135 -63 85 -63 -2797 l0 -2612 -37 -34 c-21 -19 -101 -90 -178 -158 -370
-326 -821 -801 -1159 -1222 -677 -842 -1255 -1803 -1742 -2895 -40 -92 -78
-168 -82 -170 -5 -1 -348 117 -763 264 -2044 723 -2380 842 -2383 845 -1 2
-188 402 -416 889 -227 487 -448 959 -491 1050 -42 91 -294 629 -559 1195
-851 1818 -1188 2538 -1332 2845 -53 112 -107 187 -180 247 -60 50 -169 105
-242 122 -70 17 -214 15 -288 -4 -272 -71 -464 -333 -444 -610 7 -112 22 -153
152 -433 64 -136 178 -380 254 -542 75 -162 438 -936 805 -1720 367 -784 700
-1495 740 -1580 83 -179 375 -803 769 -1645 152 -324 293 -614 313 -643 51
-74 133 -145 217 -186 39 -19 373 -141 741 -271 369 -130 859 -304 1090 -385
231 -82 680 -241 998 -353 318 -113 581 -207 583 -210 3 -3 -28 -108 -69 -234
-429 -1305 -732 -2753 -873 -4168 -9 -93 -20 -173 -23 -177 -3 -4 -323 -59
-711 -122 -388 -63 -730 -123 -760 -132 -93 -28 -182 -80 -247 -147 -33 -34
-148 -186 -255 -337 -107 -151 -531 -752 -943 -1335 -908 -1285 -1632 -2311
-2339 -3310 -291 -412 -545 -779 -563 -815 -116 -228 -71 -503 111 -685 119
-119 255 -175 421 -175 167 0 305 57 420 174 48 49 215 277 535 731 255 363
605 858 775 1100 1515 2145 2080 2944 2310 3270 147 209 274 386 281 394 9 10
161 39 446 86 238 39 434 71 436 70 1 -1 -2 -211 -8 -468 -33 -1564 99 -3161
391 -4717 48 -255 151 -741 212 -998 24 -100 41 -185 37 -187 -8 -5 -407 -146
-1795 -637 -374 -132 -707 -254 -740 -271 -75 -40 -180 -139 -222 -209 -18
-29 -167 -341 -331 -693 -308 -658 -1628 -3479 -2284 -4879 -203 -434 -376
-816 -385 -850 -51 -195 11 -419 157 -565 114 -116 256 -175 420 -175 201 0
387 97 493 257 19 29 333 689 697 1467 364 778 760 1624 880 1880 734 1567
1186 2534 1234 2636 30 65 61 121 68 125 11 6 1454 518 1985 704 l152 54 86
-267 c610 -1874 1451 -3538 2503 -4952 677 -909 1463 -1730 2292 -2395 1403
-1124 2999 -1882 4745 -2254 609 -130 677 -135 985 -77 1135 213 2070 520
3035 996 638 315 1177 645 1755 1073 684 508 1369 1144 1955 1817 1376 1577
2453 3547 3195 5837 l71 222 152 -54 c529 -185 1974 -698 1985 -704 7 -4 138
-275 291 -602 1734 -3708 2559 -5462 2588 -5506 72 -109 188 -193 323 -234 95
-29 236 -31 325 -5 208 62 367 223 420 426 22 82 22 217 2 296 -9 34 -232 522
-495 1085 -764 1631 -1849 3948 -2174 4644 -164 352 -313 664 -331 693 -42 70
-147 169 -222 209 -33 17 -406 153 -830 303 -1735 613 -1710 604 -1709 616 1
5 27 117 57 249 431 1867 627 3750 587 5644 -6 255 -9 465 -8 466 2 1 198 -31
436 -70 286 -47 437 -76 446 -86 7 -8 150 -207 317 -444 414 -588 2109 -2988
2931 -4150 178 -253 389 -551 468 -663 85 -121 168 -225 203 -258 108 -100
248 -154 402 -154 166 0 302 56 421 175 114 114 174 259 174 420 0 98 -19 179
-63 265 -18 36 -192 290 -387 565 -326 462 -1045 1479 -2370 3355 -706 999
-1163 1647 -1237 1751 -106 148 -213 231 -353 273 -30 9 -372 69 -760 132
-388 63 -708 118 -711 122 -4 4 -12 63 -18 132 -19 202 -70 617 -106 870 -173
1198 -422 2277 -772 3343 -41 126 -72 231 -70 234 6 5 573 206 2672 948 369
130 698 250 733 266 77 37 167 111 217 179 20 28 163 320 317 648 317 675 666
1421 773 1652 40 85 373 796 740 1580 367 784 730 1558 805 1720 76 162 190
406 254 542 130 280 145 321 152 433 20 277 -172 539 -444 610 -74 19 -218 21
-288 4 -73 -17 -182 -72 -242 -122 -73 -60 -127 -135 -180 -247 -144 -307
-481 -1027 -1332 -2845 -265 -566 -517 -1104 -559 -1195 -43 -91 -264 -563
-491 -1050 -228 -487 -415 -887 -417 -889 -1 -2 -190 -70 -420 -151 -230 -82
-935 -331 -1567 -554 -632 -224 -1153 -405 -1158 -404 -4 2 -42 78 -83 170
-596 1339 -1309 2450 -2196 3423 -171 188 -576 586 -737 725 l-122 105 0 2636
c0 2604 0 2637 -20 2714 -11 43 -35 105 -53 137 -17 32 -686 913 -1486 1959
-1545 2020 -1492 1954 -1627 2019 -136 64 114 60 -3436 59 -2696 -1 -3234 -3
-3293 -15z m7447 -2842 l1267 -1657 1 -2342 0 -2343 -5420 0 -5420 0 -2 2323
c0 1277 -1 2329 0 2339 1 9 118 168 260 355 781 1021 1638 2143 1937 2535
l340 447 2885 0 2885 0 1267 -1657z m1695 -7574 c315 -268 665 -618 959 -958
448 -518 892 -1163 1263 -1830 261 -470 603 -1202 755 -1615 20 -55 47 -125
60 -155 100 -231 315 -882 450 -1357 938 -3305 967 -7220 80 -10721 -659
-2603 -1766 -4840 -3243 -6555 -1562 -1815 -3529 -3009 -5736 -3482 -329 -71
-464 -93 -508 -84 -23 4 -125 24 -227 44 -2561 502 -4771 1932 -6463 4182
-1350 1796 -2343 4087 -2891 6668 -740 3489 -594 7256 403 10425 102 326 247
741 307 880 13 30 40 100 60 155 152 413 494 1145 755 1615 620 1117 1381
2072 2222 2788 l38 32 5839 0 5839 0 38 -32z"/>
</g>
</svg>
